<svg xmlns="http://www.w3.org/2000/svg" xmlns:xlink="http://www.w3.org/1999/xlink" width="261" height="362" viewBox="0 0 261 362">
  <defs>
    <filter id="Path_1" x="74.302" y="31.216" width="117.909" height="270.784" filterUnits="userSpaceOnUse">
      <feOffset dx="3" dy="3" input="SourceAlpha"/>
      <feGaussianBlur stdDeviation="3" result="blur"/>
      <feFlood flood-color="#f8f9ef"/>
      <feComposite operator="in" in2="blur"/>
      <feComposite in="SourceGraphic"/>
    </filter>
    <filter id="ROOMS_TO_KILL_FOR" x="88" y="168" width="94" height="128" filterUnits="userSpaceOnUse">
      <feOffset dx="3" dy="3" input="SourceAlpha"/>
      <feGaussianBlur stdDeviation="3" result="blur-2"/>
      <feFlood flood-color="#707070"/>
      <feComposite operator="in" in2="blur-2"/>
      <feComposite in="SourceGraphic"/>
    </filter>
    <clipPath id="clip-path">
      <rect y="4" width="249" height="73" fill="none"/>
    </clipPath>
    <filter id="Continental" x="10" y="285" width="250" height="85" filterUnits="userSpaceOnUse">
      <feOffset dx="6" dy="6" input="SourceAlpha"/>
      <feGaussianBlur stdDeviation="3" result="blur-3"/>
      <feFlood flood-color="#f8f9ef"/>
      <feComposite operator="in" in2="blur-3"/>
      <feComposite in="SourceGraphic"/>
    </filter>
    <clipPath id="clip-path-2">
      <rect x="-10" y="-6" width="81" height="74" fill="none"/>
    </clipPath>
    <filter id="C" x="94" y="118" width="77" height="74" filterUnits="userSpaceOnUse">
      <feOffset dx="3" dy="3" input="SourceAlpha"/>
      <feGaussianBlur stdDeviation="3" result="blur-4"/>
      <feFlood flood-color="#707070"/>
      <feComposite operator="in" in2="blur-4"/>
      <feComposite in="SourceGraphic"/>
    </filter>
  </defs>
  <g id="logo-dark" transform="translate(-840 -103)">
    <rect id="Rectangle_1" data-name="Rectangle 1" width="261" height="358" transform="translate(840 103)" fill="none"/>
    <g transform="matrix(1, 0, 0, 1, 840, 103)" filter="url(#Path_1)">
      <path id="Path_1-2" data-name="Path 1" d="M930,161c6.5-11.5,5.5-9.5,15.092-14.5s19.571-3.819,31.908-5c11.186-1.071,22.818,1.317,32,5a69.982,69.982,0,0,1,16,9s1,229.5-2.5,233.5-90.5,4-94,0S931,213,931,213c15.633-10.985,78-10,82.5,2V164.5a53.792,53.792,0,0,0-12-6.5c-5.322-1.378-17.219-2.5-24.5-2.5-10.663,0-30.316,3.6-31.908,4.8s1.408,12.2,0,14.2-12.592,2-14.092,0S930,161,930,161Z" transform="translate(-846 -103)" fill="#f8f9ef" stroke="#869410" stroke-width="2"/>
    </g>
    <g transform="matrix(1, 0, 0, 1, 840, 103)" filter="url(#ROOMS_TO_KILL_FOR)">
      <text id="ROOMS_TO_KILL_FOR-2" data-name="ROOMS
TO
KILL
FOR" transform="translate(132 197)" fill="none" stroke="#869410" stroke-width="1" font-size="20" font-family="SegoeUI-Bold, Segoe UI" font-weight="700"><tspan x="-36.772" y="0">ROOMS</tspan><tspan x="-13.071" y="27">TO</tspan><tspan x="-19.883" y="54">KILL</tspan><tspan x="-19.312" y="81">FOR</tspan></text>
    </g>
    <g id="Scroll_Group_2" data-name="Scroll Group 2" transform="translate(848 388)" clip-path="url(#clip-path)" style="isolation: isolate">
      <g transform="matrix(1, 0, 0, 1, -8, -285)" filter="url(#Continental)">
        <text id="Continental-2" data-name="Continental" transform="translate(117 338)" fill="#ebff3b" stroke="#fff" stroke-width="1" font-size="60" font-family="KunstlerScript, Kunstler Script"><tspan x="-102.012" y="0">Continental</tspan></text>
      </g>
    </g>
    <g id="Scroll_Group_3" data-name="Scroll Group 3" transform="translate(940 227)" clip-path="url(#clip-path-2)" style="isolation: isolate">
      <g transform="matrix(1, 0, 0, 1, -100, -124)" filter="url(#C)">
        <text id="C-2" data-name="C" transform="translate(121 166)" fill="#ebff3b" stroke="#000" stroke-width="1" font-size="50" font-family="KunstlerScript, Kunstler Script"><tspan x="-19.434" y="0">C</tspan></text>
      </g>
    </g>
  </g>
</svg>
